<svg width="32" height="32" viewBox="0 0 32 32" xmlns="http://www.w3.org/2000/svg"><title>Operon Group</title><g transform="translate(16,16)"><line x1="0" y1="0" x2="10" y2="0" stroke="#1C2B3A" stroke-width="1.5" opacity="0.35"/><line x1="0" y1="0" x2="-10" y2="0" stroke="#1C2B3A" stroke-width="1.5" opacity="0.35"/><line x1="0" y1="0" x2="5" y2="-9" stroke="#1C2B3A" stroke-width="1.5" opacity="0.35"/><line x1="0" y1="0" x2="-5" y2="-9" stroke="#1C2B3A" stroke-width="1.5" opacity="0.35"/><line x1="0" y1="0" x2="5" y2="9" stroke="#1C2B3A" stroke-width="1.5" opacity="0.35"/><line x1="0" y1="0" x2="-5" y2="9" stroke="#1C2B3A" stroke-width="1.5" opacity="0.35"/><rect x="-2.5" y="-2.5" width="5" height="5" rx="0.8" fill="#1C2B3A"/><rect x="8" y="-2" width="4" height="4" rx="0.6" fill="#1C2B3A" opacity="0.75"/><rect x="-12" y="-2" width="4" height="4" rx="0.6" fill="#1C2B3A" opacity="0.75"/><rect x="3" y="-11" width="4" height="4" rx="0.6" fill="#1C2B3A" opacity="0.75"/><rect x="-7" y="-11" width="4" height="4" rx="0.6" fill="#1C2B3A" opacity="0.75"/><rect x="3" y="7" width="4" height="4" rx="0.6" fill="#1C2B3A" opacity="0.75"/><rect x="-7" y="7" width="4" height="4" rx="0.6" fill="#1C2B3A" opacity="0.75"/></g></svg>
